Coordinates
version=1
nRows=60
nColumns=12
inDegrees=yes

Units are S.I. units (second, meters, Newtons, ...)
Angles are in degrees

endheader
time	SC_y	SC_z	SC_x	AC_y	AC_z	AC_x	GH_y	GH_z	GH_yy	EL_x	PS_y
       0.0               -43.8          33.06          75.83          65.36         -17.98          1.462         -22.26          2.664          30.01          86.78          48.81
   0.01238               -43.8          33.06          75.83          65.36         -17.98          1.464         -22.27          2.676           30.0          86.79          48.82
   0.02476              -43.79          33.06          75.82          65.35         -17.98          1.466         -22.28          2.688          29.98           86.8          48.82
   0.03714              -43.79          33.06          75.82          65.35         -17.98          1.469         -22.28          2.701          29.97           86.8          48.83
   0.04952              -43.78          33.05          75.82          65.34         -17.97          1.472         -22.29          2.715          29.96          86.81          48.84
    0.0619              -43.78          33.05          75.81          65.34         -17.97          1.475          -22.3           2.73          29.95          86.82          48.85
   0.07428              -43.78          33.05          75.81          65.33         -17.97          1.478         -22.31          2.746          29.93          86.83          48.86
   0.08667              -43.77          33.05           75.8          65.32         -17.96          1.481         -22.32          2.763          29.92          86.85          48.87
   0.09905              -43.77          33.04           75.8          65.32         -17.96          1.485         -22.33          2.782           29.9          86.86          48.88
    0.1114              -43.76          33.04          75.79          65.31         -17.95          1.489         -22.35          2.801          29.88          86.87          48.89
    0.1238              -43.76          33.04          75.79           65.3         -17.95          1.493         -22.36          2.822          29.86          86.88          48.91
    0.1362              -43.75          33.03          75.78          65.29         -17.94          1.497         -22.37          2.845          29.84           86.9          48.92
    0.1486              -43.74          33.03          75.78          65.28         -17.94          1.502         -22.39           2.87          29.82          86.92          48.94
    0.1609              -43.74          33.03          75.77          65.27         -17.93          1.507          -22.4          2.896          29.79          86.93          48.95
    0.1733              -43.73          33.02          75.76          65.26         -17.93          1.513         -22.42          2.925          29.77          86.95          48.97
    0.1857              -43.72          33.02          75.75          65.24         -17.92          1.519         -22.44          2.956          29.74          86.97          48.99
    0.1981              -43.71          33.01          75.74          65.23         -17.91          1.525         -22.46           2.99          29.71          86.99          49.01
    0.2105               -43.7          33.01          75.73          65.21          -17.9          1.533         -22.48          3.026          29.68          87.02          49.03
    0.2229              -43.69           33.0          75.72           65.2          -17.9          1.541         -22.51          3.067          29.64          87.04          49.06
    0.2352              -43.68          32.99          75.71          65.18         -17.89          1.549         -22.54          3.111           29.6          87.07          49.09
    0.2476              -43.67          32.98           75.7          65.16         -17.87          1.559         -22.57          3.159          29.55           87.1          49.12
      0.26              -43.65          32.98          75.69          65.14         -17.86          1.569          -22.6          3.212          29.51          87.14          49.15
    0.2724              -43.64          32.97          75.67          65.11         -17.85          1.581         -22.64          3.271          29.45          87.18          49.19
    0.2848              -43.62          32.96          75.65          65.09         -17.84          1.593         -22.68          3.336          29.39          87.22          49.23
    0.2971               -43.6          32.95          75.63          65.06         -17.82          1.607         -22.72          3.408          29.33          87.27          49.27
    0.3095              -43.58          32.93          75.61          65.02          -17.8          1.623         -22.77          3.489          29.25          87.32          49.32
    0.3219              -43.55          32.92          75.59          64.99         -17.78          1.641         -22.83          3.579          29.17          87.38          49.38
    0.3343              -43.52           32.9          75.56          64.94         -17.76          1.661         -22.89          3.681          29.08          87.45          49.44
    0.3467              -43.49          32.88          75.53           64.9         -17.74          1.683         -22.96          3.796          28.97          87.52          49.51
     0.359              -43.46          32.86           75.5          64.84         -17.71          1.709         -23.04          3.926          28.85          87.61          49.59
    0.3714              -43.42          32.84          75.46          64.78         -17.67          1.738         -23.13          4.075          28.72          87.71          49.69
    0.3838              -43.37          32.81          75.41          64.71         -17.64          1.772         -23.24          4.246          28.56          87.82          49.79
    0.3962              -43.32          32.78          75.36          64.63         -17.59           1.81         -23.36          4.443          28.38          87.95          49.92
    0.4086              -43.26          32.75           75.3          64.53         -17.54          1.855          -23.5          4.672          28.17           88.1          50.06
    0.4209              -43.18           32.7          75.23          64.42         -17.48          1.908         -23.67           4.94          27.93          88.27          50.23
    0.4333               -43.1          32.66          75.14          64.29         -17.41           1.97         -23.86          5.257          27.64          88.48          50.42
    0.4457               -43.0           32.6          75.04          64.13         -17.33          2.043         -24.09          5.632           27.3          88.73          50.66
    0.4581              -42.88          32.53          74.93          63.95         -17.23          2.132         -24.37          6.083          26.89          89.02          50.94
    0.4705              -42.73          32.44          74.78          63.72         -17.11          2.238         -24.71          6.627          26.39          89.38          51.28
    0.4828              -42.55          32.34           74.6          63.44         -16.97          2.369         -25.12          7.293          25.78          89.81          51.69
    0.4952              -42.33          32.21          74.39           63.1         -16.79           2.53         -25.62          8.114          25.03          90.35           52.2
    0.5076              -42.05          32.05          74.12          62.68         -16.56          2.731         -26.26          9.139           24.1          91.02          52.84
      0.52              -41.71          31.84          73.77          62.14         -16.28          2.984         -27.05          10.43          22.92          91.87          53.65
    0.5324              -41.26          31.58          73.34          61.46         -15.92          3.305         -28.06          12.07          21.42          92.95          54.67
    0.5448               -40.7          31.26          72.78          60.59         -15.46          3.717         -29.36          14.17           19.5          94.32          55.98
    0.5571              -39.97          30.83          72.07          59.47         -14.87          4.245         -31.02          16.86          17.04          96.09          57.65
    0.5695              -39.04          30.29          71.16          58.05         -14.11          4.919         -33.15           20.3           13.9          98.34           59.8
    0.5819              -37.88          29.61          70.01          56.25         -13.16          5.767         -35.82          24.63          9.952          101.2          62.49
    0.5943              -36.46          28.78          68.62          54.06         -12.01          6.801         -39.07          29.91          5.138          104.6          65.78
    0.6067              -34.81          27.82           67.0          51.53         -10.67          7.999         -42.84          36.02        -0.4421          108.6          69.59
     0.619              -33.02          26.78          65.24          48.78         -9.213          9.296         -46.93          42.64         -6.484          113.0          73.71
    0.6314              -31.24          25.74          63.49          46.04         -7.761          10.59         -51.01          49.26         -12.53          117.3          77.83
    0.6438              -29.59          24.78          61.87           43.5         -6.419          11.79         -54.78          55.37         -18.11          121.3          81.64
    0.6562              -28.17          23.96          60.48          41.31         -5.262          12.83         -58.04          60.64         -22.92          124.8          84.93
    0.6686               -27.0          23.28          59.33          39.52         -4.313          13.67         -60.71          64.97         -26.87          127.6          87.62
    0.6809              -26.08          22.74          58.42          38.09         -3.558          14.35         -62.83          68.41         -30.01          129.9          89.77
    0.6933              -25.35          22.31           57.7          36.97         -2.967          14.88         -64.49          71.11         -32.47          131.6          91.45
    0.7057              -24.78          21.98          57.15           36.1         -2.506          15.29         -65.79          73.21         -34.39          133.0          92.75
    0.7181              -24.34          21.72          56.71          35.42         -2.146          15.61          -66.8          74.85         -35.89          134.1          93.78
    0.7305              -23.99          21.52          56.37          34.89         -1.863          15.86          -67.6          76.14         -37.06          134.9          94.58
